<svg width="8084" height="1241" viewBox="0 0 8084 1241" fill="none" xmlns="http://www.w3.org/2000/svg">
<g clip-path="url(#clip0_2180_41652)">
<path d="M937.203 942.465L992.8 1094.68V1241H569.043V1017.66L616.529 999.995C751.758 949.614 842.639 818.138 842.639 672.875C842.703 624.042 832.555 575.743 812.855 531.122L700.003 222.039C753.595 246.674 802.356 280.807 843.959 322.81C936.796 416.303 987.915 540.61 987.915 672.835C987.9 757.425 966.379 840.602 925.404 914.444C884.429 988.286 825.363 1050.33 753.833 1094.68H837.546L828.611 1070.29C862.184 1041.75 892.01 1009.02 917.367 972.89C924.416 962.952 930.978 952.823 937.203 942.465ZM164.08 574.534L51.4072 883.226C20.6593 817.431 4.76445 745.593 4.86472 672.875C4.86472 540.65 55.984 416.343 148.821 322.85C238.034 232.957 355.492 181.966 481.012 178.097H481.528H482.074L535.417 326.41C522.463 324.927 509.437 324.172 496.4 324.15C421.599 324.168 348.812 348.564 288.918 393.691C229.025 438.818 185.241 502.252 164.11 574.514L164.08 574.534ZM281.449 745.992L156.475 1094.68H238.937C223.243 1084.95 208.108 1074.33 193.606 1062.88L246.88 914.261C282.987 952.359 327.237 981.675 376.271 999.985L423.717 1017.66V1241H0V1094.68L202.134 540.99C222.213 495.624 252.354 455.499 290.241 423.701C328.128 391.902 372.751 369.277 420.679 357.564L333.898 599.669L498.386 658.388L659.378 599.669L498.793 153.472H493.829C439.551 153.661 385.643 162.464 334.087 179.557L399.642 0H593.148L805.32 581.152C819.395 629.238 822.177 679.961 813.447 729.316C804.717 778.671 784.713 825.306 755.014 865.54L712.026 745.992L496.4 824.627L281.449 745.992Z" fill="#DE456A"/>
</g>
<path d="M1815.67 1034.17L1658.64 749.157H1614.54V1034.17H1430.63V279.149H1739.31C1798.82 279.149 1849.37 289.546 1890.96 310.339C1933.26 331.133 1964.81 359.814 1985.6 396.382C2006.4 432.233 2016.79 472.386 2016.79 516.842C2016.79 567.033 2002.45 611.847 1973.77 651.283C1945.81 690.72 1904.22 718.683 1849.01 735.175L2023.25 1034.17H1815.67ZM1614.54 619.017H1728.55C1762.25 619.017 1787.35 610.772 1803.84 594.28C1821.05 577.789 1829.65 554.485 1829.65 524.37C1829.65 495.69 1821.05 473.103 1803.84 456.612C1787.35 440.12 1762.25 431.875 1728.55 431.875H1614.54V619.017Z" fill="#DE456A"/>
<path d="M2324.43 279.149V1034.17H2140.52V279.149H2324.43Z" fill="#DE456A"/>
<path d="M2967.19 517.917C2953.57 492.822 2933.85 473.82 2908.03 460.914C2882.94 447.291 2853.18 440.479 2818.77 440.479C2759.25 440.479 2711.57 460.197 2675.72 499.633C2639.87 538.352 2621.94 590.337 2621.94 655.586C2621.94 725.137 2640.59 779.63 2677.87 819.067C2715.87 857.786 2767.86 877.145 2833.82 877.145C2879 877.145 2917 865.673 2947.83 842.728C2979.38 819.784 3002.32 786.801 3016.66 743.779H2783.27V608.262H3183.37V779.272C3169.75 825.161 3146.44 867.824 3113.46 907.26C3081.2 946.697 3039.97 978.604 2989.78 1002.98C2939.58 1027.36 2882.94 1039.55 2819.84 1039.55C2745.27 1039.55 2678.59 1023.42 2619.79 991.152C2561.71 958.169 2516.18 912.638 2483.2 854.559C2450.93 796.48 2434.8 730.156 2434.8 655.586C2434.8 581.015 2450.93 514.691 2483.2 456.612C2516.18 397.816 2561.71 352.285 2619.79 320.019C2677.87 287.036 2744.19 270.545 2818.77 270.545C2909.11 270.545 2985.11 292.414 3046.78 336.152C3109.16 379.89 3150.39 440.479 3170.46 517.917H2967.19Z" fill="#DE456A"/>
<path d="M3947.44 279.149V1034.17H3763.53V723.344H3477.43V1034.17H3293.52V279.149H3477.43V574.92H3763.53V279.149H3947.44Z" fill="#DE456A"/>
<path d="M4631.63 279.149V426.497H4431.58V1034.17H4247.66V426.497H4047.61V279.149H4631.63Z" fill="#DE456A"/>
<path d="M5005.39 1041.7C4950.18 1041.7 4900.71 1032.74 4856.97 1014.81C4813.23 996.888 4778.09 970.358 4751.56 935.224C4725.75 900.09 4712.13 857.786 4710.69 808.311H4906.44C4909.31 836.275 4918.99 857.786 4935.48 872.843C4951.97 887.184 4973.48 894.354 5000.01 894.354C5027.26 894.354 5048.77 888.259 5064.54 876.07C5080.32 863.163 5088.21 845.596 5088.21 823.369C5088.21 804.726 5081.75 789.31 5068.85 777.121C5056.66 764.931 5041.24 754.893 5022.6 747.006C5004.67 739.119 4978.86 730.156 4945.16 720.117C4896.4 705.06 4856.61 690.003 4825.78 674.945C4794.94 659.888 4768.41 637.66 4746.19 608.262C4723.96 578.864 4712.85 540.503 4712.85 493.18C4712.85 422.912 4738.3 368.06 4789.21 328.623C4840.12 288.47 4906.44 268.394 4988.18 268.394C5071.36 268.394 5138.4 288.47 5189.31 328.623C5240.22 368.06 5267.46 423.27 5271.05 494.256H5072.07C5070.64 469.877 5061.68 450.876 5045.19 437.252C5028.69 422.912 5007.54 415.742 4981.73 415.742C4959.5 415.742 4941.58 421.836 4927.95 434.026C4914.33 445.498 4907.52 462.348 4907.52 484.576C4907.52 508.954 4918.99 527.956 4941.93 541.579C4964.88 555.202 5000.73 569.901 5049.49 585.676C5098.24 602.167 5137.68 617.942 5167.8 632.999C5198.63 648.057 5225.16 669.926 5247.39 698.607C5269.61 727.288 5280.73 764.214 5280.73 809.387C5280.73 852.408 5269.61 891.486 5247.39 926.62C5225.87 961.754 5194.33 989.718 5152.74 1010.51C5111.15 1031.31 5062.04 1041.7 5005.39 1041.7Z" fill="#DE456A"/>
<path d="M6257.23 279.149V1034.17H6073.32V581.374L5904.46 1034.17H5756.03L5586.1 580.298V1034.17H5402.18V279.149H5619.44L5831.32 801.858L6041.05 279.149H6257.23Z" fill="#DE456A"/>
<path d="M6581.68 279.149V1034.17H6397.76V279.149H6581.68Z" fill="#DE456A"/>
<path d="M7398.67 1034.17H7214.75L6907.15 568.467V1034.17H6723.23V279.149H6907.15L7214.75 747.006V279.149H7398.67V1034.17Z" fill="#DE456A"/>
<path d="M8083.4 279.149V426.497H7883.35V1034.17H7699.44V426.497H7499.39V279.149H8083.4Z" fill="#DE456A"/>
<defs>
<clipPath id="clip0_2180_41652">
<rect width="992.8" height="1241" fill="white"/>
</clipPath>
</defs>
</svg>
