<svg width="51" height="51" viewBox="0 0 51 51" fill="none" xmlns="http://www.w3.org/2000/svg">
<path d="M4.25 12.75C4.25 10.4957 5.14553 8.33365 6.73959 6.73959C8.33365 5.14553 10.4957 4.25 12.75 4.25H38.25C40.5043 4.25 42.6663 5.14553 44.2604 6.73959C45.8545 8.33365 46.75 10.4957 46.75 12.75V38.25C46.75 40.5043 45.8545 42.6663 44.2604 44.2604C42.6663 45.8545 40.5043 46.75 38.25 46.75H12.75C10.4957 46.75 8.33365 45.8545 6.73959 44.2604C5.14553 42.6663 4.25 40.5043 4.25 38.25V12.75Z" stroke="#4A5568" stroke-width="2" stroke-linecap="round" stroke-linejoin="round"/>
<path d="M18.0625 23.375C20.9965 23.375 23.375 20.9965 23.375 18.0625C23.375 15.1285 20.9965 12.75 18.0625 12.75C15.1285 12.75 12.75 15.1285 12.75 18.0625C12.75 20.9965 15.1285 23.375 18.0625 23.375Z" fill="#E0335D"/>
<path d="M30.8678 26.8196L12.75 46.75H38.5326C40.712 46.75 42.8021 45.8843 44.3432 44.3432C45.8842 42.8021 46.75 40.712 46.75 38.5326V38.25C46.75 37.2598 46.3781 36.8794 45.7088 36.1463L37.145 26.8069C36.7459 26.3715 36.2604 26.0241 35.7195 25.7868C35.1786 25.5496 34.5942 25.4276 34.0036 25.4288C33.4129 25.43 32.829 25.5543 32.2891 25.7938C31.7492 26.0333 31.2651 26.3826 30.8678 26.8196V26.8196Z" fill="#E0335D" stroke="#4A5568" stroke-width="2" stroke-linecap="round" stroke-linejoin="round"/>
</svg>
